# File created by Blade
# Date/Time:  Thu Jan 22 18:06:27 2015
# Frame Rate: 120.000 fps
#------------------------------------------------------
:FULLY-SPECIFIED
:DEGREES
3070
root 0.128408 32.833835 -2.406668 6.345004 -9.783390 1.640691
RightUpLeg -17.339908 -10.625606 -3.253700
RightLeg 82.565692 -0.000000 -0.000000
RightFoot 0.358850 -9.504039 7.734750
RightToeBase -4.897054 -0.000000 0.000000
LeftUpLeg -1.464172 2.262594 -10.655595
LeftLeg 0.710467 -0.000000 -0.000000
LeftFoot -12.656593 9.844171 -5.935947
LeftToeBase 11.211573 -0.000000 -0.000000
Spine -8.699114 -2.304215 -4.506127
RightShoulder -17.822309 -17.122657 -19.900605
RightArm 24.508905 21.991198 54.299998
RightForeArm -4.526801 -0.000000 21.487371
RightHand 11.393302 0.000000 1.329431
RightHandThumb1 -24.326973 -0.000000 -32.862282
LeftShoulder -21.969692 5.354428 25.368393
LeftArm 8.322802 -41.442576 -51.500126
LeftForeArm 11.113500 0.000000 66.517530
LeftHand -2.406877 -0.000000 34.335319
LeftHandThumb1 -26.253704 0.000000 33.147579
Head 12.910277 -2.433828 1.380476
3071
root 0.125330 32.833630 -2.408092 6.347201 -9.763848 1.644900
RightUpLeg -17.352502 -10.660885 -3.224096
RightLeg 82.582068 -0.000000 -0.000000
RightFoot 0.314344 -9.536336 7.537846
RightToeBase -4.333164 -0.000000 0.000000
LeftUpLeg -1.476450 2.275541 -10.656947
LeftLeg 0.724908 -0.000000 -0.000000
LeftFoot -12.644290 9.838116 -5.888673
LeftToeBase 11.144995 -0.000000 -0.000000
Spine -8.704555 -2.306800 -4.510015
RightShoulder -17.824338 -17.138086 -19.901662
RightArm 24.503387 22.019098 54.306831
RightForeArm -4.521117 0.000000 21.469943
RightHand 11.413770 0.000000 1.359769
RightHandThumb1 -24.326973 -0.000000 -32.862282
LeftShoulder -21.955744 5.346459 25.382341
LeftArm 8.298954 -41.397723 -51.473867
LeftForeArm 11.104292 0.000000 66.505314
LeftHand -2.391555 0.000000 34.331320
LeftHandThumb1 -26.253704 0.000000 33.147579
Head 12.918623 -2.418820 1.380499
3072
root 0.122103 32.833929 -2.408050 6.341646 -9.760336 1.649037
RightUpLeg -17.353687 -10.693816 -3.199228
RightLeg 82.585771 -0.000000 -0.000000
RightFoot 0.304237 -9.487139 7.763547
RightToeBase -4.364210 -0.000000 0.000000
LeftUpLeg -1.468005 2.257674 -10.656109
LeftLeg 0.720121 -0.000000 -0.000000
LeftFoot -12.636218 9.856114 -5.891104
LeftToeBase 11.109452 -0.000000 -0.000000
Spine -8.708506 -2.301295 -4.516143
RightShoulder -17.821312 -17.131425 -19.904386
RightArm 24.493550 22.020191 54.302884
RightForeArm -4.510550 -0.000000 21.441372
RightHand 11.400521 -0.000000 1.361203
RightHandThumb1 -24.326973 -0.000000 -32.862282
LeftShoulder -21.945889 5.341334 25.394300
LeftArm 8.274920 -41.340952 -51.437074
LeftForeArm 11.104379 -0.000000 66.472464
LeftHand -2.277352 -0.000000 34.713015
LeftHandThumb1 -26.253704 0.000000 33.147579
Head 12.937308 -2.398270 1.376790
3073
root 0.118777 32.833861 -2.408371 6.335217 -9.756275 1.649246
RightUpLeg -17.358900 -10.727484 -3.170609
RightLeg 82.595885 -0.000000 -0.000000
RightFoot 0.321520 -9.425736 7.881847
RightToeBase -4.510286 -0.000000 0.000000
LeftUpLeg -1.461105 2.236225 -10.652438
LeftLeg 0.720990 -0.000000 -0.000000
LeftFoot -12.626879 9.884501 -5.850428
LeftToeBase 11.065900 -0.000000 -0.000000
Spine -8.706607 -2.284615 -4.512420
RightShoulder -17.830528 -17.134592 -19.912473
RightArm 24.493736 22.026401 54.309067
RightForeArm -4.486495 -0.000000 21.423212
RightHand 11.372154 -0.000000 1.370813
RightHandThumb1 -24.326973 -0.000000 -32.862282
LeftShoulder -21.921192 5.336882 25.397362
LeftArm 8.243723 -41.310985 -51.398154
LeftForeArm 11.157154 0.000000 66.463190
LeftHand -2.408983 -0.000000 34.410535
LeftHandThumb1 -26.253704 0.000000 33.147579
Head 12.947884 -2.389181 1.359510
